<svg width="87" height="24" viewBox="0 0 87 24" fill="none" xmlns="http://www.w3.org/2000/svg">
<rect x="0.5" width="86" height="24" rx="12" fill="#CB92B1"/>
<path d="M29.0811 16H27.3525C27.32 15.9544 27.2874 15.9007 27.2549 15.8389C27.2223 15.7738 27.1865 15.6973 27.1475 15.6094L27.0791 15.4629C27.0238 15.3457 26.9717 15.2236 26.9229 15.0967C26.8773 14.9665 26.8187 14.7939 26.7471 14.5791C26.6462 14.2699 26.5566 14.0225 26.4785 13.8369C26.4036 13.6481 26.3092 13.4902 26.1953 13.3633C26.0814 13.2363 25.9463 13.1729 25.79 13.1729C25.458 13.1859 25.1309 13.1924 24.8086 13.1924V16H23.2559V8.56836H23.9736C24.1396 8.56836 24.3301 8.55859 24.5449 8.53906C24.724 8.52604 24.9323 8.51465 25.1699 8.50488C25.4076 8.49512 25.6663 8.49023 25.9463 8.49023C26.7373 8.49023 27.3802 8.66276 27.875 9.00781C28.373 9.34961 28.6221 9.92578 28.6221 10.7363C28.6221 11.319 28.5163 11.7845 28.3047 12.1328C28.0964 12.4811 27.7904 12.735 27.3867 12.8945C27.5592 13.041 27.709 13.2331 27.8359 13.4707C27.9661 13.7083 28.1191 14.0322 28.2949 14.4424C28.4837 14.8981 28.6432 15.2383 28.7734 15.4629L29.0811 16ZM24.8086 12.0742C24.9714 12.0938 25.3115 12.1035 25.8291 12.1035C26.2686 12.1035 26.5924 11.9782 26.8008 11.7275C27.0091 11.4769 27.1133 11.1611 27.1133 10.7803C27.1133 10.5589 27.0775 10.3669 27.0059 10.2041C26.9375 10.0381 26.804 9.90462 26.6055 9.80371C26.4069 9.69954 26.1253 9.64746 25.7607 9.64746C25.3734 9.64746 25.056 9.67676 24.8086 9.73535V12.0742ZM34.7988 8.56836V9.75977H31.8203V11.6055H34.1055V12.7822H31.8203V14.7744H35.1162V16H30.2676V8.56836H34.7988ZM40.292 14.4277H37.5625L37.0693 16H35.3994L38.1436 8.49023H39.7158L42.4844 16H40.79L40.292 14.4277ZM39.9355 13.3096L39.1299 10.7607L38.9199 9.99414L38.7051 10.7607L37.9092 13.3096H39.9355ZM46.5469 8.49023C46.9082 8.49023 47.2077 8.50814 47.4453 8.54395C47.6862 8.57975 47.9434 8.63184 48.2168 8.7002C48.4154 8.74577 48.5326 8.77181 48.5684 8.77832L48.3438 10.1455C48.3242 10.1357 48.2396 10.0902 48.0898 10.0088C47.9401 9.92415 47.7383 9.85579 47.4844 9.80371C47.2305 9.74837 46.9505 9.7207 46.6445 9.7207C46.2409 9.7207 45.8763 9.81999 45.5508 10.0186C45.2285 10.2171 44.973 10.5052 44.7842 10.8828C44.5986 11.2572 44.5059 11.6982 44.5059 12.2061C44.5059 12.7204 44.5954 13.181 44.7744 13.5879C44.9567 13.9915 45.2171 14.3073 45.5557 14.5352C45.8975 14.763 46.2995 14.877 46.7617 14.877C46.9733 14.877 47.1947 14.8525 47.4258 14.8037C47.6602 14.7516 47.8717 14.6898 48.0605 14.6182C48.2526 14.5433 48.3942 14.4733 48.4854 14.4082L48.4902 15.6875C48.2852 15.7689 48.1029 15.8356 47.9434 15.8877C47.7871 15.9398 47.5967 15.9837 47.3721 16.0195C47.1475 16.0586 46.8952 16.0781 46.6152 16.0781C45.8633 16.0781 45.2074 15.9219 44.6475 15.6094C44.0876 15.2936 43.6562 14.8509 43.3535 14.2812C43.054 13.7116 42.9043 13.0524 42.9043 12.3037C42.9043 11.5062 43.0638 10.821 43.3828 10.248C43.7051 9.67188 44.1413 9.23568 44.6914 8.93945C45.2448 8.63997 45.8633 8.49023 46.5469 8.49023ZM48.9102 9.75977V8.56836H54.7207V9.75977H52.6016V16H51.0391V9.75977H48.9102ZM54.8184 16.8008C55.1146 16.6901 55.3766 16.5241 55.6045 16.3027C55.8324 16.0814 55.9886 15.79 56.0732 15.4287C56.1351 15.1715 56.1758 14.8542 56.1953 14.4766C56.2181 14.0957 56.2295 13.6139 56.2295 13.0312V8.56836H57.792V13.0068L57.7969 14.0957C57.7969 14.4049 57.7904 14.6768 57.7773 14.9111C57.7643 15.1423 57.7383 15.3571 57.6992 15.5557C57.6178 15.9821 57.4355 16.3499 57.1523 16.6592C56.8691 16.9684 56.5469 17.2028 56.1855 17.3623C55.8275 17.5251 55.4971 17.6113 55.1943 17.6211L54.8184 16.8008ZM59.7256 14.3936C59.9632 14.5238 60.2497 14.6344 60.585 14.7256C60.9202 14.8167 61.2718 14.8623 61.6396 14.8623C62.04 14.8623 62.3216 14.8021 62.4844 14.6816C62.6471 14.5579 62.7285 14.3659 62.7285 14.1055C62.7285 13.9297 62.6878 13.7816 62.6064 13.6611C62.5251 13.5374 62.3867 13.4137 62.1914 13.29C61.9993 13.1663 61.6982 13.0036 61.2881 12.8018C60.7412 12.5316 60.2969 12.2158 59.9551 11.8545C59.6133 11.4932 59.4424 11.0391 59.4424 10.4922C59.4424 10.0234 59.5563 9.64095 59.7842 9.34473C60.0153 9.04525 60.3245 8.82878 60.7119 8.69531C61.1025 8.55859 61.5436 8.49023 62.0352 8.49023C62.4583 8.49023 62.8424 8.53581 63.1875 8.62695C63.5358 8.7181 63.7913 8.81576 63.9541 8.91992L63.7002 10.126C63.4788 9.986 63.2363 9.87207 62.9727 9.78418C62.7122 9.69629 62.4144 9.65234 62.0791 9.65234C61.6852 9.65234 61.4004 9.71908 61.2246 9.85254C61.0521 9.98275 60.9658 10.1699 60.9658 10.4141C60.9658 10.5866 61.0081 10.7347 61.0928 10.8584C61.1807 10.9821 61.3092 11.1009 61.4785 11.2148C61.6478 11.3255 61.9049 11.472 62.25 11.6543C62.7188 11.9017 63.0915 12.1247 63.3682 12.3232C63.6481 12.5186 63.8711 12.7529 64.0371 13.0264C64.2064 13.2998 64.291 13.627 64.291 14.0078C64.291 14.444 64.1852 14.8184 63.9736 15.1309C63.762 15.4401 63.4626 15.6761 63.0752 15.8389C62.6911 15.9984 62.2451 16.0781 61.7373 16.0781C61.4346 16.0781 61.1286 16.0537 60.8193 16.0049C60.5133 15.9593 60.2415 15.9023 60.0039 15.834C59.7695 15.7656 59.6035 15.7005 59.5059 15.6387L59.7256 14.3936Z" fill="black"/>
</svg>
