<svg width="87" height="24" viewBox="0 0 87 24" fill="none" xmlns="http://www.w3.org/2000/svg">
<rect x="0.5" width="86" height="24" rx="12" fill="#CB92B1"/>
<path d="M41.7373 11.9961V15.5605C41.6722 15.5638 41.6022 15.5768 41.5273 15.5996C41.4525 15.6224 41.3483 15.6566 41.2148 15.7021C40.8861 15.8161 40.5638 15.9072 40.248 15.9756C39.9355 16.0439 39.5449 16.0781 39.0762 16.0781C38.334 16.0781 37.696 15.9251 37.1621 15.6191C36.6283 15.3099 36.2214 14.8737 35.9414 14.3105C35.6647 13.7441 35.5264 13.0817 35.5264 12.3232C35.5264 11.4639 35.6859 10.7477 36.0049 10.1748C36.3271 9.60189 36.7666 9.17871 37.3232 8.90527C37.8799 8.62858 38.5163 8.49023 39.2324 8.49023C39.61 8.49023 39.9128 8.50651 40.1406 8.53906C40.3685 8.57161 40.6175 8.62044 40.8877 8.68555C41.0537 8.72786 41.2018 8.76042 41.332 8.7832L41.2832 10.1162C41.0098 9.986 40.7249 9.88835 40.4287 9.82324C40.1325 9.75488 39.7354 9.7207 39.2373 9.7207C38.8076 9.7207 38.4349 9.81999 38.1191 10.0186C37.8066 10.2139 37.5658 10.4971 37.3965 10.8682C37.2272 11.236 37.1426 11.6771 37.1426 12.1914C37.1426 12.7057 37.2109 13.1663 37.3477 13.5732C37.4844 13.9769 37.6927 14.2975 37.9727 14.5352C38.2526 14.7695 38.6009 14.8867 39.0176 14.8867C39.5156 14.8867 39.9307 14.8249 40.2627 14.7012V13.2119L39.125 13.1533V11.9961H41.7373ZM44.877 8.56836V16H43.3145V8.56836H44.877ZM46.0049 9.75977V8.56836H51.8154V9.75977H49.6963V16H48.1338V9.75977H46.0049Z" fill="black"/>
</svg>
