<svg width="87" height="24" viewBox="0 0 87 24" fill="none" xmlns="http://www.w3.org/2000/svg">
<rect x="0.5" width="86" height="24" rx="12" fill="#CB92B1"/>
<path d="M13.6562 16H11.9277C11.8952 15.9544 11.8626 15.9007 11.8301 15.8389C11.7975 15.7738 11.7617 15.6973 11.7227 15.6094L11.6543 15.4629C11.599 15.3457 11.5469 15.2236 11.498 15.0967C11.4525 14.9665 11.3939 14.7939 11.3223 14.5791C11.2214 14.2699 11.1318 14.0225 11.0537 13.8369C10.9788 13.6481 10.8844 13.4902 10.7705 13.3633C10.6566 13.2363 10.5215 13.1729 10.3652 13.1729C10.0332 13.1859 9.70605 13.1924 9.38379 13.1924V16H7.83105V8.56836H8.54883C8.71484 8.56836 8.90527 8.55859 9.12012 8.53906C9.29915 8.52604 9.50749 8.51465 9.74512 8.50488C9.98275 8.49512 10.2415 8.49023 10.5215 8.49023C11.3125 8.49023 11.9554 8.66276 12.4502 9.00781C12.9482 9.34961 13.1973 9.92578 13.1973 10.7363C13.1973 11.319 13.0915 11.7845 12.8799 12.1328C12.6715 12.4811 12.3656 12.735 11.9619 12.8945C12.1344 13.041 12.2842 13.2331 12.4111 13.4707C12.5413 13.7083 12.6943 14.0322 12.8701 14.4424C13.0589 14.8981 13.2184 15.2383 13.3486 15.4629L13.6562 16ZM9.38379 12.0742C9.54655 12.0938 9.88672 12.1035 10.4043 12.1035C10.8438 12.1035 11.1676 11.9782 11.376 11.7275C11.5843 11.4769 11.6885 11.1611 11.6885 10.7803C11.6885 10.5589 11.6527 10.3669 11.5811 10.2041C11.5127 10.0381 11.3792 9.90462 11.1807 9.80371C10.9821 9.69954 10.7005 9.64746 10.3359 9.64746C9.94857 9.64746 9.63118 9.67676 9.38379 9.73535V12.0742ZM19.374 8.56836V9.75977H16.3955V11.6055H18.6807V12.7822H16.3955V14.7744H19.6914V16H14.8428V8.56836H19.374ZM24.8672 14.4277H22.1377L21.6445 16H19.9746L22.7188 8.49023H24.291L27.0596 16H25.3652L24.8672 14.4277ZM24.5107 13.3096L23.7051 10.7607L23.4951 9.99414L23.2803 10.7607L22.4844 13.3096H24.5107ZM31.1221 8.49023C31.4834 8.49023 31.7829 8.50814 32.0205 8.54395C32.2614 8.57975 32.5186 8.63184 32.792 8.7002C32.9906 8.74577 33.1077 8.77181 33.1436 8.77832L32.9189 10.1455C32.8994 10.1357 32.8148 10.0902 32.665 10.0088C32.5153 9.92415 32.3135 9.85579 32.0596 9.80371C31.8057 9.74837 31.5257 9.7207 31.2197 9.7207C30.8161 9.7207 30.4515 9.81999 30.126 10.0186C29.8037 10.2171 29.5482 10.5052 29.3594 10.8828C29.1738 11.2572 29.0811 11.6982 29.0811 12.2061C29.0811 12.7204 29.1706 13.181 29.3496 13.5879C29.5319 13.9915 29.7923 14.3073 30.1309 14.5352C30.4727 14.763 30.8747 14.877 31.3369 14.877C31.5485 14.877 31.7699 14.8525 32.001 14.8037C32.2354 14.7516 32.4469 14.6898 32.6357 14.6182C32.8278 14.5433 32.9694 14.4733 33.0605 14.4082L33.0654 15.6875C32.8604 15.7689 32.6781 15.8356 32.5186 15.8877C32.3623 15.9398 32.1719 15.9837 31.9473 16.0195C31.7227 16.0586 31.4704 16.0781 31.1904 16.0781C30.4385 16.0781 29.7826 15.9219 29.2227 15.6094C28.6628 15.2936 28.2314 14.8509 27.9287 14.2812C27.6292 13.7116 27.4795 13.0524 27.4795 12.3037C27.4795 11.5062 27.639 10.821 27.958 10.248C28.2803 9.67188 28.7165 9.23568 29.2666 8.93945C29.82 8.63997 30.4385 8.49023 31.1221 8.49023ZM33.4854 9.75977V8.56836H39.2959V9.75977H37.1768V16H35.6143V9.75977H33.4854ZM49.7061 8.56836V16H48.1484L45.4971 11.7959L44.9111 10.6094L45.0771 12.3818V16H43.6318V8.56836H45.0723L47.8408 12.9385L48.4023 14.0518L48.2607 12.2646V8.56836H49.7061ZM55.4434 14.4277H52.7139L52.2207 16H50.5508L53.2949 8.49023H54.8672L57.6357 16H55.9414L55.4434 14.4277ZM55.0869 13.3096L54.2812 10.7607L54.0713 9.99414L53.8564 10.7607L53.0605 13.3096H55.0869ZM57.7139 9.75977V8.56836H63.5244V9.75977H61.4053V16H59.8428V9.75977H57.7139ZM66.2148 8.56836V16H64.6523V8.56836H66.2148ZM68.8369 8.56836L70.2236 12.626L70.6191 14.042L71.0195 12.626L72.333 8.56836H73.9883L71.2539 16.0293H69.9355L67.1719 8.56836H68.8369ZM79.4131 8.56836V9.75977H76.4346V11.6055H78.7197V12.7822H76.4346V14.7744H79.7305V16H74.8818V8.56836H79.4131Z" fill="black"/>
</svg>
