<svg width="87" height="24" viewBox="0 0 87 24" fill="none" xmlns="http://www.w3.org/2000/svg">
<rect x="0.5" width="86" height="24" rx="12" fill="#CB92B1"/>
<path d="M32.7627 8.56836V9.75977H29.7842V11.6055H32.0693V12.7822H29.7842V14.7744H33.0801V16H28.2314V8.56836H32.7627ZM35.9072 8.56836V14.8184H38.583V16H34.3545V8.56836H35.9072ZM41.4492 8.56836V16H39.8867V8.56836H41.4492ZM48.9932 16H47.2695L46.0781 13.9248L45.7168 13.2852L44.208 16H42.5869L44.8281 12.1621L42.6406 8.56836L44.3398 8.56348L45.8682 11.1953L46.2295 10.5312L47.3037 8.56836H48.9443L46.7275 12.3281L48.9932 16ZM51.6934 8.56836V16H50.1309V8.56836H51.6934ZM59.418 16H57.6895C57.6569 15.9544 57.6243 15.9007 57.5918 15.8389C57.5592 15.7738 57.5234 15.6973 57.4844 15.6094L57.416 15.4629C57.3607 15.3457 57.3086 15.2236 57.2598 15.0967C57.2142 14.9665 57.1556 14.7939 57.084 14.5791C56.9831 14.2699 56.8936 14.0225 56.8154 13.8369C56.7406 13.6481 56.6462 13.4902 56.5322 13.3633C56.4183 13.2363 56.2832 13.1729 56.127 13.1729C55.7949 13.1859 55.4678 13.1924 55.1455 13.1924V16H53.5928V8.56836H54.3105C54.4766 8.56836 54.667 8.55859 54.8818 8.53906C55.0609 8.52604 55.2692 8.51465 55.5068 8.50488C55.7445 8.49512 56.0033 8.49023 56.2832 8.49023C57.0742 8.49023 57.7171 8.66276 58.2119 9.00781C58.71 9.34961 58.959 9.92578 58.959 10.7363C58.959 11.319 58.8532 11.7845 58.6416 12.1328C58.4333 12.4811 58.1273 12.735 57.7236 12.8945C57.8962 13.041 58.0459 13.2331 58.1729 13.4707C58.3031 13.7083 58.4561 14.0322 58.6318 14.4424C58.8206 14.8981 58.9801 15.2383 59.1104 15.4629L59.418 16ZM55.1455 12.0742C55.3083 12.0938 55.6484 12.1035 56.166 12.1035C56.6055 12.1035 56.9294 11.9782 57.1377 11.7275C57.346 11.4769 57.4502 11.1611 57.4502 10.7803C57.4502 10.5589 57.4144 10.3669 57.3428 10.2041C57.2744 10.0381 57.141 9.90462 56.9424 9.80371C56.7438 9.69954 56.4622 9.64746 56.0977 9.64746C55.7103 9.64746 55.3929 9.67676 55.1455 9.73535V12.0742Z" fill="black"/>
</svg>
