<svg width="87" height="24" viewBox="0 0 87 24" fill="none" xmlns="http://www.w3.org/2000/svg">
<rect x="0.5" width="86" height="24" rx="12" fill="#CB92B1"/>
<path d="M30.6289 11.9961V15.5605C30.5638 15.5638 30.4938 15.5768 30.4189 15.5996C30.3441 15.6224 30.2399 15.6566 30.1064 15.7021C29.7777 15.8161 29.4554 15.9072 29.1396 15.9756C28.8271 16.0439 28.4365 16.0781 27.9678 16.0781C27.2256 16.0781 26.5876 15.9251 26.0537 15.6191C25.5199 15.3099 25.113 14.8737 24.833 14.3105C24.5563 13.7441 24.418 13.0817 24.418 12.3232C24.418 11.4639 24.5775 10.7477 24.8965 10.1748C25.2188 9.60189 25.6582 9.17871 26.2148 8.90527C26.7715 8.62858 27.4079 8.49023 28.124 8.49023C28.5016 8.49023 28.8044 8.50651 29.0322 8.53906C29.2601 8.57161 29.5091 8.62044 29.7793 8.68555C29.9453 8.72786 30.0934 8.76042 30.2236 8.7832L30.1748 10.1162C29.9014 9.986 29.6165 9.88835 29.3203 9.82324C29.0241 9.75488 28.627 9.7207 28.1289 9.7207C27.6992 9.7207 27.3265 9.81999 27.0107 10.0186C26.6982 10.2139 26.4574 10.4971 26.2881 10.8682C26.1188 11.236 26.0342 11.6771 26.0342 12.1914C26.0342 12.7057 26.1025 13.1663 26.2393 13.5732C26.376 13.9769 26.5843 14.2975 26.8643 14.5352C27.1442 14.7695 27.4925 14.8867 27.9092 14.8867C28.4072 14.8867 28.8223 14.8249 29.1543 14.7012V13.2119L28.0166 13.1533V11.9961H30.6289ZM33.7686 8.56836V16H32.2061V8.56836H33.7686ZM34.8965 9.75977V8.56836H40.707V9.75977H38.5879V16H37.0254V9.75977H34.8965ZM43.3242 8.56836V11.6543H46.2197V8.56836H47.7529V16H46.2197V12.8213H43.3242V16H41.7715V8.56836H43.3242ZM49.418 8.56836H50.9561L50.9463 12.7285C50.9463 13.2917 51 13.7262 51.1074 14.0322C51.2181 14.3382 51.3792 14.5498 51.5908 14.667C51.8024 14.7809 52.0791 14.8379 52.4209 14.8379C52.7497 14.8379 53.0182 14.776 53.2266 14.6523C53.4349 14.5254 53.5928 14.3089 53.7002 14.0029C53.8109 13.6937 53.8662 13.2689 53.8662 12.7285V8.56836H55.3945V12.875C55.3945 13.9199 55.1406 14.7158 54.6328 15.2627C54.125 15.8063 53.373 16.0781 52.377 16.0781C51.3158 16.0781 50.554 15.7965 50.0918 15.2334C49.6328 14.667 49.4049 13.8597 49.4082 12.8115L49.418 8.56836ZM57.7969 8.56836C57.9303 8.56836 58.1631 8.55859 58.4951 8.53906C58.9476 8.50977 59.2975 8.49512 59.5449 8.49512C60.1569 8.49512 60.6647 8.57324 61.0684 8.72949C61.4753 8.88574 61.7764 9.10547 61.9717 9.38867C62.167 9.66862 62.2646 9.9974 62.2646 10.375C62.2646 10.6452 62.2207 10.8958 62.1328 11.127C62.0449 11.3581 61.9163 11.555 61.7471 11.7178C61.5811 11.8773 61.3825 11.988 61.1514 12.0498C61.4443 12.0824 61.7048 12.1735 61.9326 12.3232C62.1605 12.4697 62.3379 12.6667 62.4648 12.9141C62.5951 13.1582 62.6602 13.4365 62.6602 13.749C62.6602 14.4814 62.429 15.0511 61.9668 15.458C61.5046 15.8649 60.7217 16.0684 59.6182 16.0684C59.1462 16.0684 58.5505 16.0456 57.8311 16H57.0449V8.56348L57.7969 8.56836ZM59.5156 11.6836C59.9648 11.6836 60.2887 11.5924 60.4873 11.4102C60.6859 11.2279 60.7852 10.9268 60.7852 10.5068C60.7852 10.2041 60.6647 9.98275 60.4238 9.84277C60.1862 9.7028 59.8379 9.63281 59.3789 9.63281C59.2487 9.63281 59.0957 9.6377 58.9199 9.64746C58.7441 9.65723 58.6318 9.6735 58.583 9.69629V11.6396C58.6709 11.6559 58.8125 11.6673 59.0078 11.6738C59.2031 11.6803 59.3724 11.6836 59.5156 11.6836ZM59.6621 14.9941C60.1471 14.9941 60.5052 14.9046 60.7363 14.7256C60.9707 14.5465 61.0879 14.2438 61.0879 13.8174C61.0879 13.4365 60.9723 13.1598 60.7412 12.9873C60.5133 12.8115 60.152 12.7236 59.6572 12.7236C59.4684 12.7236 59.2585 12.7269 59.0273 12.7334C58.7962 12.7399 58.6481 12.748 58.583 12.7578V14.8672C58.6449 14.916 58.7816 14.9502 58.9932 14.9697C59.208 14.986 59.431 14.9941 59.6621 14.9941Z" fill="black"/>
</svg>
