<svg width="87" height="24" viewBox="0 0 87 24" fill="none" xmlns="http://www.w3.org/2000/svg">
<rect x="0.5" width="86" height="24" rx="12" fill="#CB92B1"/>
<path d="M30.8877 8.56836V16H29.3301L26.6787 11.7959L26.0928 10.6094L26.2588 12.3818V16H24.8135V8.56836H26.2539L29.0225 12.9385L29.584 14.0518L29.4424 12.2646V8.56836H30.8877ZM32.2842 12.2451C32.3005 11.4118 32.4583 10.7201 32.7578 10.1699C33.0605 9.61654 33.4723 9.20312 33.9932 8.92969C34.5173 8.65625 35.1243 8.50977 35.8145 8.49023C36.4883 8.4707 37.0775 8.61719 37.582 8.92969C38.0866 9.24219 38.4707 9.68815 38.7344 10.2676C39.0013 10.847 39.1283 11.516 39.1152 12.2744C39.099 13.1208 38.9411 13.8288 38.6416 14.3984C38.3421 14.9648 37.9303 15.3864 37.4062 15.6631C36.8822 15.9398 36.2734 16.0781 35.5801 16.0781C34.8965 16.0781 34.3024 15.917 33.7979 15.5947C33.2965 15.2692 32.9157 14.8167 32.6553 14.2373C32.3949 13.6579 32.2712 12.9938 32.2842 12.2451ZM37.5088 12.2256C37.5088 11.7275 37.4437 11.2865 37.3135 10.9023C37.1865 10.5182 36.9928 10.2171 36.7324 9.99902C36.4753 9.78092 36.1579 9.67188 35.7803 9.67188C35.4189 9.67188 35.0967 9.76139 34.8135 9.94043C34.5303 10.1195 34.3057 10.4043 34.1396 10.7949C33.9736 11.1855 33.8906 11.6868 33.8906 12.2988C33.8906 12.7969 33.9574 13.2445 34.0908 13.6416C34.2275 14.0387 34.431 14.3512 34.7012 14.5791C34.9746 14.807 35.3083 14.9209 35.7021 14.9209C36.2718 14.9209 36.7145 14.6979 37.0303 14.252C37.3493 13.806 37.5088 13.1305 37.5088 12.2256ZM41.2539 8.56836C41.3581 8.56836 41.5664 8.55859 41.8789 8.53906C42.3151 8.50651 42.7074 8.49023 43.0557 8.49023C44.2764 8.49023 45.1878 8.79948 45.79 9.41797C46.3955 10.0365 46.6982 10.9268 46.6982 12.0889C46.6982 12.9189 46.5469 13.6335 46.2441 14.2324C45.9414 14.8314 45.5101 15.2887 44.9502 15.6045C44.3936 15.9202 43.7376 16.0781 42.9824 16.0781C42.748 16.0781 42.3997 16.0635 41.9375 16.0342C41.6543 16.0114 41.4313 16 41.2686 16H40.5166V8.56836H41.2539ZM43.0801 14.8867C43.6986 14.8802 44.182 14.6637 44.5303 14.2373C44.8818 13.8076 45.0576 13.1468 45.0576 12.2549C45.0576 11.6169 44.9795 11.109 44.8232 10.7314C44.6702 10.3506 44.4375 10.0771 44.125 9.91113C43.8125 9.74512 43.4072 9.66211 42.9092 9.66211C42.7367 9.66211 42.5267 9.67839 42.2793 9.71094L42.084 9.73047V14.7988C42.3053 14.8574 42.6374 14.8867 43.0801 14.8867ZM52.6357 8.56836V9.75977H49.6572V11.6055H51.9424V12.7822H49.6572V14.7744H52.9531V16H48.1045V8.56836H52.6357ZM53.2607 16.8008C53.557 16.6901 53.819 16.5241 54.0469 16.3027C54.2747 16.0814 54.431 15.79 54.5156 15.4287C54.5775 15.1715 54.6182 14.8542 54.6377 14.4766C54.6605 14.0957 54.6719 13.6139 54.6719 13.0312V8.56836H56.2344V13.0068L56.2393 14.0957C56.2393 14.4049 56.2327 14.6768 56.2197 14.9111C56.2067 15.1423 56.1807 15.3571 56.1416 15.5557C56.0602 15.9821 55.8779 16.3499 55.5947 16.6592C55.3115 16.9684 54.9893 17.2028 54.6279 17.3623C54.2699 17.5251 53.9395 17.6113 53.6367 17.6211L53.2607 16.8008ZM58.168 14.3936C58.4056 14.5238 58.6921 14.6344 59.0273 14.7256C59.3626 14.8167 59.7142 14.8623 60.082 14.8623C60.4824 14.8623 60.764 14.8021 60.9268 14.6816C61.0895 14.5579 61.1709 14.3659 61.1709 14.1055C61.1709 13.9297 61.1302 13.7816 61.0488 13.6611C60.9674 13.5374 60.8291 13.4137 60.6338 13.29C60.4417 13.1663 60.1406 13.0036 59.7305 12.8018C59.1836 12.5316 58.7393 12.2158 58.3975 11.8545C58.0557 11.4932 57.8848 11.0391 57.8848 10.4922C57.8848 10.0234 57.9987 9.64095 58.2266 9.34473C58.4577 9.04525 58.7669 8.82878 59.1543 8.69531C59.5449 8.55859 59.986 8.49023 60.4775 8.49023C60.9007 8.49023 61.2848 8.53581 61.6299 8.62695C61.9782 8.7181 62.2337 8.81576 62.3965 8.91992L62.1426 10.126C61.9212 9.986 61.6787 9.87207 61.415 9.78418C61.1546 9.69629 60.8568 9.65234 60.5215 9.65234C60.1276 9.65234 59.8428 9.71908 59.667 9.85254C59.4945 9.98275 59.4082 10.1699 59.4082 10.4141C59.4082 10.5866 59.4505 10.7347 59.5352 10.8584C59.623 10.9821 59.7516 11.1009 59.9209 11.2148C60.0902 11.3255 60.3473 11.472 60.6924 11.6543C61.1611 11.9017 61.5339 12.1247 61.8105 12.3232C62.0905 12.5186 62.3135 12.7529 62.4795 13.0264C62.6488 13.2998 62.7334 13.627 62.7334 14.0078C62.7334 14.444 62.6276 14.8184 62.416 15.1309C62.2044 15.4401 61.9049 15.6761 61.5176 15.8389C61.1335 15.9984 60.6875 16.0781 60.1797 16.0781C59.877 16.0781 59.571 16.0537 59.2617 16.0049C58.9557 15.9593 58.6839 15.9023 58.4463 15.834C58.2119 15.7656 58.0459 15.7005 57.9482 15.6387L58.168 14.3936Z" fill="black"/>
</svg>
