<svg width="87" height="24" viewBox="0 0 87 24" fill="none" xmlns="http://www.w3.org/2000/svg">
<rect x="0.5" width="86" height="24" rx="12" fill="#CB92B1"/>
<path d="M38.5586 8.49023C38.9199 8.49023 39.2194 8.50814 39.457 8.54395C39.6979 8.57975 39.9551 8.63184 40.2285 8.7002C40.4271 8.74577 40.5443 8.77181 40.5801 8.77832L40.3555 10.1455C40.3359 10.1357 40.2513 10.0902 40.1016 10.0088C39.9518 9.92415 39.75 9.85579 39.4961 9.80371C39.2422 9.74837 38.9622 9.7207 38.6562 9.7207C38.2526 9.7207 37.888 9.81999 37.5625 10.0186C37.2402 10.2171 36.9847 10.5052 36.7959 10.8828C36.6104 11.2572 36.5176 11.6982 36.5176 12.2061C36.5176 12.7204 36.6071 13.181 36.7861 13.5879C36.9684 13.9915 37.2288 14.3073 37.5674 14.5352C37.9092 14.763 38.3112 14.877 38.7734 14.877C38.985 14.877 39.2064 14.8525 39.4375 14.8037C39.6719 14.7516 39.8835 14.6898 40.0723 14.6182C40.2643 14.5433 40.4059 14.4733 40.4971 14.4082L40.502 15.6875C40.2969 15.7689 40.1146 15.8356 39.9551 15.8877C39.7988 15.9398 39.6084 15.9837 39.3838 16.0195C39.1592 16.0586 38.9069 16.0781 38.627 16.0781C37.875 16.0781 37.2191 15.9219 36.6592 15.6094C36.0993 15.2936 35.668 14.8509 35.3652 14.2812C35.0658 13.7116 34.916 13.0524 34.916 12.3037C34.916 11.5062 35.0755 10.821 35.3945 10.248C35.7168 9.67188 36.153 9.23568 36.7031 8.93945C37.2565 8.63997 37.875 8.49023 38.5586 8.49023ZM41.7373 14.3936C41.9749 14.5238 42.2614 14.6344 42.5967 14.7256C42.932 14.8167 43.2835 14.8623 43.6514 14.8623C44.0518 14.8623 44.3333 14.8021 44.4961 14.6816C44.6589 14.5579 44.7402 14.3659 44.7402 14.1055C44.7402 13.9297 44.6995 13.7816 44.6182 13.6611C44.5368 13.5374 44.3984 13.4137 44.2031 13.29C44.0111 13.1663 43.71 13.0036 43.2998 12.8018C42.7529 12.5316 42.3086 12.2158 41.9668 11.8545C41.625 11.4932 41.4541 11.0391 41.4541 10.4922C41.4541 10.0234 41.568 9.64095 41.7959 9.34473C42.027 9.04525 42.3363 8.82878 42.7236 8.69531C43.1143 8.55859 43.5553 8.49023 44.0469 8.49023C44.4701 8.49023 44.8542 8.53581 45.1992 8.62695C45.5475 8.7181 45.8031 8.81576 45.9658 8.91992L45.7119 10.126C45.4906 9.986 45.248 9.87207 44.9844 9.78418C44.724 9.69629 44.4261 9.65234 44.0908 9.65234C43.6969 9.65234 43.4121 9.71908 43.2363 9.85254C43.0638 9.98275 42.9775 10.1699 42.9775 10.4141C42.9775 10.5866 43.0199 10.7347 43.1045 10.8584C43.1924 10.9821 43.321 11.1009 43.4902 11.2148C43.6595 11.3255 43.9167 11.472 44.2617 11.6543C44.7305 11.9017 45.1032 12.1247 45.3799 12.3232C45.6598 12.5186 45.8828 12.7529 46.0488 13.0264C46.2181 13.2998 46.3027 13.627 46.3027 14.0078C46.3027 14.444 46.1969 14.8184 45.9854 15.1309C45.7738 15.4401 45.4743 15.6761 45.0869 15.8389C44.7028 15.9984 44.2568 16.0781 43.749 16.0781C43.4463 16.0781 43.1403 16.0537 42.8311 16.0049C42.5251 15.9593 42.2533 15.9023 42.0156 15.834C41.7812 15.7656 41.6152 15.7005 41.5176 15.6387L41.7373 14.3936ZM47.6357 14.3936C47.8734 14.5238 48.1598 14.6344 48.4951 14.7256C48.8304 14.8167 49.182 14.8623 49.5498 14.8623C49.9502 14.8623 50.2318 14.8021 50.3945 14.6816C50.5573 14.5579 50.6387 14.3659 50.6387 14.1055C50.6387 13.9297 50.598 13.7816 50.5166 13.6611C50.4352 13.5374 50.2969 13.4137 50.1016 13.29C49.9095 13.1663 49.6084 13.0036 49.1982 12.8018C48.6514 12.5316 48.207 12.2158 47.8652 11.8545C47.5234 11.4932 47.3525 11.0391 47.3525 10.4922C47.3525 10.0234 47.4665 9.64095 47.6943 9.34473C47.9255 9.04525 48.2347 8.82878 48.6221 8.69531C49.0127 8.55859 49.4538 8.49023 49.9453 8.49023C50.3685 8.49023 50.7526 8.53581 51.0977 8.62695C51.446 8.7181 51.7015 8.81576 51.8643 8.91992L51.6104 10.126C51.389 9.986 51.1465 9.87207 50.8828 9.78418C50.6224 9.69629 50.3245 9.65234 49.9893 9.65234C49.5954 9.65234 49.3105 9.71908 49.1348 9.85254C48.9622 9.98275 48.876 10.1699 48.876 10.4141C48.876 10.5866 48.9183 10.7347 49.0029 10.8584C49.0908 10.9821 49.2194 11.1009 49.3887 11.2148C49.5579 11.3255 49.8151 11.472 50.1602 11.6543C50.6289 11.9017 51.0016 12.1247 51.2783 12.3232C51.5583 12.5186 51.7812 12.7529 51.9473 13.0264C52.1165 13.2998 52.2012 13.627 52.2012 14.0078C52.2012 14.444 52.0954 14.8184 51.8838 15.1309C51.6722 15.4401 51.3727 15.6761 50.9854 15.8389C50.6012 15.9984 50.1553 16.0781 49.6475 16.0781C49.3447 16.0781 49.0387 16.0537 48.7295 16.0049C48.4235 15.9593 48.1517 15.9023 47.9141 15.834C47.6797 15.7656 47.5137 15.7005 47.416 15.6387L47.6357 14.3936Z" fill="black"/>
</svg>
