<svg width="87" height="24" viewBox="0 0 87 24" fill="none" xmlns="http://www.w3.org/2000/svg">
<rect x="0.5" width="86" height="24" rx="12" fill="#CB92B1"/>
<path d="M31.6689 8.56836V11.6543H34.5645V8.56836H36.0977V16H34.5645V12.8213H31.6689V16H30.1162V8.56836H31.6689ZM37.167 9.75977V8.56836H42.9775V9.75977H40.8584V16H39.2959V9.75977H37.167ZM46.4395 8.56836L47.4307 12.4746L47.8066 14.1152L48.0898 12.4746L48.9834 8.56836H51.1025L51.9912 16H50.4678L50.1016 12.0156L49.9697 9.74023L49.4229 12.0156L48.3584 16.0732H47.1279L45.9512 12.0156L45.3994 9.74023L45.2236 12.0156L44.9062 16L43.4658 16.0049L44.2568 8.56836H46.4395ZM54.8037 8.56836V14.8184H57.4795V16H53.251V8.56836H54.8037Z" fill="black"/>
</svg>
