<svg width="87" height="24" viewBox="0 0 87 24" fill="none" xmlns="http://www.w3.org/2000/svg">
<rect x="0.5" width="86" height="24" rx="12" fill="#CB92B1"/>
<path d="M13.4121 16.8008C13.7083 16.6901 13.9704 16.5241 14.1982 16.3027C14.4261 16.0814 14.5824 15.79 14.667 15.4287C14.7288 15.1715 14.7695 14.8542 14.7891 14.4766C14.8118 14.0957 14.8232 13.6139 14.8232 13.0312V8.56836H16.3857V13.0068L16.3906 14.0957C16.3906 14.4049 16.3841 14.6768 16.3711 14.9111C16.3581 15.1423 16.332 15.3571 16.293 15.5557C16.2116 15.9821 16.0293 16.3499 15.7461 16.6592C15.4629 16.9684 15.1406 17.2028 14.7793 17.3623C14.4212 17.5251 14.0908 17.6113 13.7881 17.6211L13.4121 16.8008ZM22.1768 14.4277H19.4473L18.9541 16H17.2842L20.0283 8.49023H21.6006L24.3691 16H22.6748L22.1768 14.4277ZM21.8203 13.3096L21.0146 10.7607L20.8047 9.99414L20.5898 10.7607L19.7939 13.3096H21.8203ZM25.9414 8.56836L27.3281 12.626L27.7236 14.042L28.124 12.626L29.4375 8.56836H31.0928L28.3584 16.0293H27.04L24.2764 8.56836H25.9414ZM35.8877 14.4277H33.1582L32.665 16H30.9951L33.7393 8.49023H35.3115L38.0801 16H36.3857L35.8877 14.4277ZM35.5312 13.3096L34.7256 10.7607L34.5156 9.99414L34.3008 10.7607L33.5049 13.3096H35.5312ZM38.9736 14.3936C39.2113 14.5238 39.4977 14.6344 39.833 14.7256C40.1683 14.8167 40.5199 14.8623 40.8877 14.8623C41.2881 14.8623 41.5697 14.8021 41.7324 14.6816C41.8952 14.5579 41.9766 14.3659 41.9766 14.1055C41.9766 13.9297 41.9359 13.7816 41.8545 13.6611C41.7731 13.5374 41.6348 13.4137 41.4395 13.29C41.2474 13.1663 40.9463 13.0036 40.5361 12.8018C39.9893 12.5316 39.5449 12.2158 39.2031 11.8545C38.8613 11.4932 38.6904 11.0391 38.6904 10.4922C38.6904 10.0234 38.8044 9.64095 39.0322 9.34473C39.2633 9.04525 39.5726 8.82878 39.96 8.69531C40.3506 8.55859 40.7917 8.49023 41.2832 8.49023C41.7064 8.49023 42.0905 8.53581 42.4355 8.62695C42.7839 8.7181 43.0394 8.81576 43.2021 8.91992L42.9482 10.126C42.7269 9.986 42.4844 9.87207 42.2207 9.78418C41.9603 9.69629 41.6624 9.65234 41.3271 9.65234C40.9333 9.65234 40.6484 9.71908 40.4727 9.85254C40.3001 9.98275 40.2139 10.1699 40.2139 10.4141C40.2139 10.5866 40.2562 10.7347 40.3408 10.8584C40.4287 10.9821 40.5573 11.1009 40.7266 11.2148C40.8958 11.3255 41.153 11.472 41.498 11.6543C41.9668 11.9017 42.3395 12.1247 42.6162 12.3232C42.8962 12.5186 43.1191 12.7529 43.2852 13.0264C43.4544 13.2998 43.5391 13.627 43.5391 14.0078C43.5391 14.444 43.4333 14.8184 43.2217 15.1309C43.0101 15.4401 42.7106 15.6761 42.3232 15.8389C41.9391 15.9984 41.4932 16.0781 40.9854 16.0781C40.6826 16.0781 40.3766 16.0537 40.0674 16.0049C39.7614 15.9593 39.4896 15.9023 39.252 15.834C39.0176 15.7656 38.8516 15.7005 38.7539 15.6387L38.9736 14.3936ZM48.041 8.49023C48.4023 8.49023 48.7018 8.50814 48.9395 8.54395C49.1803 8.57975 49.4375 8.63184 49.7109 8.7002C49.9095 8.74577 50.0267 8.77181 50.0625 8.77832L49.8379 10.1455C49.8184 10.1357 49.7337 10.0902 49.584 10.0088C49.4342 9.92415 49.2324 9.85579 48.9785 9.80371C48.7246 9.74837 48.4447 9.7207 48.1387 9.7207C47.735 9.7207 47.3704 9.81999 47.0449 10.0186C46.7227 10.2171 46.4671 10.5052 46.2783 10.8828C46.0928 11.2572 46 11.6982 46 12.2061C46 12.7204 46.0895 13.181 46.2686 13.5879C46.4508 13.9915 46.7113 14.3073 47.0498 14.5352C47.3916 14.763 47.7936 14.877 48.2559 14.877C48.4674 14.877 48.6888 14.8525 48.9199 14.8037C49.1543 14.7516 49.3659 14.6898 49.5547 14.6182C49.7467 14.5433 49.8883 14.4733 49.9795 14.4082L49.9844 15.6875C49.7793 15.7689 49.597 15.8356 49.4375 15.8877C49.2812 15.9398 49.0908 15.9837 48.8662 16.0195C48.6416 16.0586 48.3893 16.0781 48.1094 16.0781C47.3574 16.0781 46.7015 15.9219 46.1416 15.6094C45.5817 15.2936 45.1504 14.8509 44.8477 14.2812C44.5482 13.7116 44.3984 13.0524 44.3984 12.3037C44.3984 11.5062 44.5579 10.821 44.877 10.248C45.1992 9.67188 45.6354 9.23568 46.1855 8.93945C46.7389 8.63997 47.3574 8.49023 48.041 8.49023ZM57.001 16H55.2725C55.2399 15.9544 55.2074 15.9007 55.1748 15.8389C55.1423 15.7738 55.1064 15.6973 55.0674 15.6094L54.999 15.4629C54.9437 15.3457 54.8916 15.2236 54.8428 15.0967C54.7972 14.9665 54.7386 14.7939 54.667 14.5791C54.5661 14.2699 54.4766 14.0225 54.3984 13.8369C54.3236 13.6481 54.2292 13.4902 54.1152 13.3633C54.0013 13.2363 53.8662 13.1729 53.71 13.1729C53.3779 13.1859 53.0508 13.1924 52.7285 13.1924V16H51.1758V8.56836H51.8936C52.0596 8.56836 52.25 8.55859 52.4648 8.53906C52.6439 8.52604 52.8522 8.51465 53.0898 8.50488C53.3275 8.49512 53.5863 8.49023 53.8662 8.49023C54.6572 8.49023 55.3001 8.66276 55.7949 9.00781C56.293 9.34961 56.542 9.92578 56.542 10.7363C56.542 11.319 56.4362 11.7845 56.2246 12.1328C56.0163 12.4811 55.7103 12.735 55.3066 12.8945C55.4792 13.041 55.6289 13.2331 55.7559 13.4707C55.8861 13.7083 56.0391 14.0322 56.2148 14.4424C56.4036 14.8981 56.5632 15.2383 56.6934 15.4629L57.001 16ZM52.7285 12.0742C52.8913 12.0938 53.2314 12.1035 53.749 12.1035C54.1885 12.1035 54.5124 11.9782 54.7207 11.7275C54.929 11.4769 55.0332 11.1611 55.0332 10.7803C55.0332 10.5589 54.9974 10.3669 54.9258 10.2041C54.8574 10.0381 54.724 9.90462 54.5254 9.80371C54.3268 9.69954 54.0452 9.64746 53.6807 9.64746C53.2933 9.64746 52.9759 9.67676 52.7285 9.73535V12.0742ZM59.8135 8.56836V16H58.251V8.56836H59.8135ZM62.1816 8.56836C62.4779 8.56836 62.8701 8.55534 63.3584 8.5293C63.8141 8.50326 64.1527 8.49023 64.374 8.49023C65.2562 8.49023 65.9284 8.69531 66.3906 9.10547C66.8561 9.51562 67.0889 10.165 67.0889 11.0537C67.0889 11.6201 66.9733 12.1051 66.7422 12.5088C66.5143 12.9124 66.1774 13.2201 65.7314 13.4316C65.2887 13.6432 64.75 13.749 64.1152 13.749C63.7767 13.749 63.4935 13.7458 63.2656 13.7393V16H61.7129V8.56836H62.1816ZM64.0762 12.5723C64.5124 12.5723 64.8656 12.4567 65.1357 12.2256C65.4092 11.9945 65.5459 11.5973 65.5459 11.0342C65.5459 10.5622 65.4189 10.2041 65.165 9.95996C64.9111 9.71257 64.5433 9.59863 64.0615 9.61816C63.8727 9.62467 63.7181 9.63281 63.5977 9.64258C63.4805 9.64909 63.3698 9.66374 63.2656 9.68652V12.5332C63.4772 12.5592 63.7474 12.5723 64.0762 12.5723ZM67.582 9.75977V8.56836H73.3926V9.75977H71.2734V16H69.7109V9.75977H67.582Z" fill="black"/>
</svg>
